# xmcd
#
# Track frame offsets: 
#        150
#        14986
#        26347
#        41302
#        56263
#        67066
#        81841
#        96378
#        111477
#        125162
#        137870
#        151934
#        165516
#        180250
#        195186
#        209693
#        223483
#        235550
#        250368
#        278571
#
# Disc length: 3915 seconds
#
# Revision: 2
# Processed by: cddbd v1.5.2PL0 Copyright (c) Steve Scherf et al.
# Submitted via: ExactAudioCopy v0.99pb5
#
DISCID=210f4914
DTITLE=Various Artist - Ladies Sing The Blues (3CD1)
DYEAR=2010
DGENRE=Blues
TTITLE0=Billie Holiday - Lover Man
TTITLE1=Ella Fitzgerald - Baby Won't You Please Come Home
TTITLE2=Bessie Smith - Blackwater Blues
TTITLE3=Duke Ellington - I Got It Bad And That Ain't Good
TTITLE4=Anita O'day - Ain't Misbehavin'
TTITLE5=Peggy Lee - Blues In The Night
TTITLE6=Bessie Smith - The Gin House Blues
TTITLE7=Maxine Sullivan - St. Louis Blues
TTITLE8=Billie Holiday - All Of Me
TTITLE9=Lena Horne - Aunt Hagar's Blues
TTITLE10=Ella Fitzgerald - Basin Street Blues
TTITLE11=Bessie Smith - Dyin' By The Hour
TTITLE12=Mildred Bailey - A Porter's Love Song To A Chambermaid
TTITLE13=Ma Rainey - Booze And Blues
TTITLE14=Ethel Waters - Don't Blame Me
TTITLE15=Billie Holiday - Long Gone Blues
TTITLE16=Ella Fitzgerald - Stone Cold Dead In The Market
TTITLE17=Peggy Lee - How Long Has This Been Going On
TTITLE18=Bessie Smith - Empty Bed Blues
TTITLE19=Duke Ellington and Ivie Anderson - My Old Flame
EXTD=
EXTT0=
EXTT1=
EXTT2=
EXTT3=
EXTT4=
EXTT5=
EXTT6=
EXTT7=
EXTT8=
EXTT9=
EXTT10=
EXTT11=
EXTT12=
EXTT13=
EXTT14=
EXTT15=
EXTT16=
EXTT17=
EXTT18=
EXTT19=
PLAYORDER=
